<?xml version="1.0" encoding="utf-8"?>
<!-- Generator: Adobe Illustrator 16.0.0, SVG Export Plug-In . SVG Version: 6.00 Build 0)  -->
<!DOCTYPE svg PUBLIC "-//W3C//DTD SVG 1.1//EN" "http://www.w3.org/Graphics/SVG/1.1/DTD/svg11.dtd">
<svg version="1.1" id="Layer_1" xmlns="http://www.w3.org/2000/svg" xmlns:xlink="http://www.w3.org/1999/xlink" x="0px" y="0px"
	 width="584px" height="445px" viewBox="0 0 584 445" enable-background="new 0 0 584 445" xml:space="preserve">
<circle fill="#B0B0B0" cx="283.354" cy="157.207" r="65.104"/>
<g display="none">
	<g display="inline">
		<path fill-rule="evenodd" clip-rule="evenodd" fill="#FEFEFE" d="M396,474.875c0-60,0-120,0-180c78,0,156,0,234,0
			c0,60,0,120,0,180C552,474.875,474,474.875,396,474.875z M565.618,425.192c0.255,0.72,0.292,1.55,1.021,2.03
			c0.564,2.109,0.408,4.614,3.614,6.033c1.22-4.699,4.28-8.362,5.407-12.932c-0.705-0.218-1.134-0.491-1.297-0.379
			c-3.021,2.083-2.735,6.051-4.653,8.431c-0.751-0.635-1.492-1.263-2.233-1.891c-0.293-0.698-0.325-1.538-1.072-1.991
			c-0.35-0.981,0.016-2.226-1.076-2.935c-0.285-0.681-0.313-1.936-1.375-1.48c-1.205,0.516,0.026,1.22,0.246,1.83
			c0.051,0.142,0.199,0.248,0.303,0.371C564.9,423.241,564.664,424.445,565.618,425.192z M474.619,425.189
			c0.254,0.721,0.289,1.553,1.024,2.031c0.553,2.115,0.405,4.615,3.327,5.909c1.89-4.402,4.291-8.357,5.985-13.669
			c-4.892,1.973-4.11,6.637-6.604,9.262c-0.435-0.936-0.966-1.769-1.875-2.241c-0.294-0.696-0.326-1.534-1.069-1.989
			c-0.329-0.982-0.042-2.181-1.025-2.937c-0.23-0.549-0.245-1.231-0.926-1.503c-0.44,1.087-0.44,1.087,0.144,2.198
			C473.915,423.239,473.635,424.434,474.619,425.189z M533.139,426.44c-1.16-1.759-3.83-0.932-5.016-2.857
			c2.551-3.436,5.16,0.034,7.623,0.217c0.669-2.11-0.53-2.709-1.717-3.295c-2.039-1.005-4.035-0.918-6.127,0.005
			c-1.668,0.735-2.135,1.886-1.857,3.535c-1.938,0.681-1.981-1.235-2.82-2.059c-2.373-2.328-5.75-2.831-8.605-1.278
			c-2.553,1.389-3.992,4.373-3.391,7.03c0.642,2.834,2.962,4.851,5.92,5.147c3.519,0.353,5.994-1.183,7.382-4.496
			c0.495-1.182,0.146-2.713,1.46-3.554c1.993,1.809,4.287,2.902,7.02,2.949c1.069,0.624,1.381,1.296,0.238,2.194
			c-1.804,1.417-4.128,0.326-6.127,1.213c1.6,2.299,3.887,1.917,5.877,1.494c1.679-0.356,3.297-1.379,3.405-3.571
			C535.709,427.768,534.706,426.764,533.139,426.44z M510.238,384.966c8.051,0.726,16.026-7.681,16.031-16.079
			c0.004-8.252-7.792-16.383-16.51-16.277c-8.022,0.097-16.026,7.842-16.029,16.254C493.728,377.115,501.53,385.845,510.238,384.966
			z M525.857,337.75c-13.76-7.742-33.549-4.589-44.773,10.976c-10.209,14.156-6.9,35.863,3.856,43.919
			c0-8.311-0.095-16.458,0.02-24.603c0.225-16.01,16.138-27.477,30.848-23.517c3.549,0.955,6.506,2.854,10.049,4.443
			C525.857,344.995,525.857,341.38,525.857,337.75z M494.142,400c13.768,7.742,33.546,4.59,44.774-10.976
			c10.208-14.151,6.904-35.853-3.856-43.922c0,8.312,0.096,16.458-0.021,24.603c-0.227,16.03-16.155,27.478-30.849,23.52
			c-3.548-0.956-6.504-2.854-10.049-4.442C494.142,392.755,494.142,396.37,494.142,400z M455.167,421.193
			c-1.521-1.161-2.624-1.271-3.753-1.379c-3.1-0.3-6.685,1.541-7.254,5.882c-0.479,3.652,2.155,6.785,5.893,7.198
			c4.105,0.454,7.426-1.836,7.75-5.805c0.295-3.619,0.17-7.286,0.014-10.923c-0.067-1.556-1.133-1.804-2.283-0.978
			c-0.182,0.265-0.354,0.398-0.355,0.534C455.159,417.198,455.167,418.673,455.167,421.193z M471.696,427.869
			c-0.05-5.092-1.669-7.511-4.875-7.978c-3.453-0.504-6.746,1.191-7.721,3.973c-1.064,3.035,0.486,7.114,3.283,8.548
			c1.717,0.88,3.568,0.589,5.333,0.299c1.1-0.182,2.173-0.809,2.044-2.31c-1.489-1.113-2.776,0.037-4.172,0.25
			c-1.72,0.263-3.032-0.568-3.882-2.782C465.145,427.869,468.234,427.869,471.696,427.869z M550.811,427.805
			c-0.327-5.336-1.933-7.558-5.226-7.932c-3.505-0.398-6.731,1.448-7.526,4.307c-0.906,3.265,0.793,7.338,3.682,8.409
			c1.739,0.645,3.637,0.532,5.396,0.004c0.88-0.264,1.841-0.879,1.605-2.278c-2.247-1.582-6.253,2.769-7.878-2.51
			C544.227,427.805,547.326,427.805,550.811,427.805z M488.372,432.047c1.318,0.399,2.654,0.882,4.107,0.866
			c3.757-0.041,6.354-2.384,6.523-6.018c0.19-4.081-2.167-6.845-5.991-7.023c-4.076-0.189-6.83,2.07-6.986,5.997
			c-0.146,3.66-0.045,7.331-0.034,10.996c0.002,0.881,0.199,1.66,1.432,1.603C488.785,436.563,487.426,434.232,488.372,432.047z
			 M500.028,419.032c0,5.013-0.092,8.621,0.045,12.222c0.055,1.463,1.053,1.896,2.495,1.15c-0.355-2.765-1.237-5.38,0.288-8.1
			c1.727-3.079,4.645-1.728,7.159-2.088c-1.113-2.315-1.114-2.285-2.617-2.353C505.201,419.768,503.083,421.398,500.028,419.032z
			 M552.028,419.032c0,5.012-0.092,8.621,0.044,12.222c0.057,1.463,1.055,1.896,2.495,1.151c-0.354-2.766-1.237-5.381,0.288-8.101
			c1.727-3.079,4.645-1.728,7.153-2.087c-1.095-2.375-1.097-2.313-2.611-2.36C557.201,419.788,555.083,421.398,552.028,419.032z"/>
		<path fill-rule="evenodd" clip-rule="evenodd" fill="#676464" d="M510.238,384.966c-8.708,0.879-16.511-7.851-16.508-16.103
			c0.003-8.412,8.007-16.157,16.029-16.254c8.718-0.105,16.514,8.025,16.51,16.277C526.265,377.285,518.289,385.691,510.238,384.966
			z"/>
		<path fill-rule="evenodd" clip-rule="evenodd" fill="#A3CD3F" d="M525.857,337.75c0,3.63,0,7.245,0,11.219
			c-3.543-1.59-6.5-3.488-10.049-4.443c-14.71-3.96-30.624,7.507-30.848,23.517c-0.115,8.145-0.02,16.292-0.02,24.603
			c-10.756-8.056-14.066-29.763-3.856-43.919C492.309,333.161,512.098,330.008,525.857,337.75z"/>
		<path fill-rule="evenodd" clip-rule="evenodd" fill="#A3CD3F" d="M494.142,400c0-3.63,0-7.245,0-11.218
			c3.544,1.588,6.5,3.486,10.049,4.442c14.693,3.958,30.622-7.489,30.849-23.52c0.116-8.145,0.021-16.291,0.021-24.603
			c10.761,8.069,14.064,29.771,3.856,43.922C527.688,404.59,507.909,407.742,494.142,400z"/>
		<path fill-rule="evenodd" clip-rule="evenodd" fill="#807F7F" d="M455.167,421.193c0-2.521-0.007-3.995,0.012-5.47
			c0.001-0.136,0.173-0.27,0.355-0.534c1.15-0.826,2.215-0.578,2.283,0.978c0.156,3.637,0.281,7.304-0.014,10.923
			c-0.324,3.969-3.646,6.259-7.75,5.805c-3.738-0.413-6.372-3.546-5.893-7.198c0.569-4.341,4.154-6.182,7.254-5.882
			C452.543,419.923,453.646,420.032,455.167,421.193z M446.903,426.29c-0.031,2.485,1.981,4.6,4.26,4.476
			c2.145-0.117,3.906-2.044,3.934-4.304c0.031-2.482-1.984-4.599-4.261-4.475C448.696,422.104,446.931,424.034,446.903,426.29z"/>
		<path fill-rule="evenodd" clip-rule="evenodd" fill="#807E7E" d="M471.696,427.869c-3.462,0-6.551,0-9.99,0
			c0.85,2.214,2.162,3.045,3.882,2.782c1.396-0.213,2.683-1.363,4.172-0.25c0.129,1.501-0.944,2.128-2.044,2.31
			c-1.765,0.29-3.616,0.581-5.333-0.299c-2.797-1.434-4.347-5.513-3.283-8.548c0.975-2.781,4.268-4.477,7.721-3.973
			C470.027,420.358,471.646,422.777,471.696,427.869z M461.105,424.754c2.819,0.227,5.363,0.718,8.225-0.426
			C465.187,421.102,464.958,421.117,461.105,424.754z"/>
		<path fill-rule="evenodd" clip-rule="evenodd" fill="#807E7E" d="M550.811,427.805c-3.484,0-6.584,0-9.947,0
			c1.625,5.278,5.631,0.928,7.878,2.51c0.235,1.399-0.726,2.015-1.605,2.278c-1.759,0.528-3.656,0.641-5.396-0.004
			c-2.889-1.071-4.588-5.145-3.682-8.409c0.795-2.858,4.021-4.705,7.526-4.307C548.878,420.247,550.483,422.469,550.811,427.805z
			 M548.616,424.769c-4.21-3.696-5.304-3.608-8.118,0C542.949,424.769,545.349,424.769,548.616,424.769z"/>
		<path fill-rule="evenodd" clip-rule="evenodd" fill="#7A7878" d="M525.99,424.836c-1.314,0.841-0.965,2.372-1.46,3.554
			c-1.388,3.313-3.863,4.849-7.382,4.496c-2.958-0.297-5.278-2.313-5.92-5.147c-0.602-2.657,0.838-5.642,3.391-7.03
			c2.855-1.553,6.232-1.05,8.605,1.278c0.839,0.823,0.883,2.739,2.82,2.059C526.012,424.308,525.993,424.571,525.99,424.836z
			 M513.887,426.548c0.057,2.226,1.916,4.173,4.036,4.229c2.325,0.061,4.257-2.047,4.19-4.572c-0.059-2.224-1.92-4.175-4.037-4.229
			C515.753,421.914,513.821,424.022,513.887,426.548z"/>
		<path fill-rule="evenodd" clip-rule="evenodd" fill="#6F6D6D" d="M488.372,432.047c-0.946,2.186,0.413,4.517-0.949,6.421
			c-1.233,0.058-1.43-0.722-1.432-1.603c-0.011-3.665-0.111-7.336,0.034-10.996c0.156-3.927,2.91-6.187,6.986-5.997
			c3.824,0.179,6.182,2.942,5.991,7.023c-0.17,3.634-2.767,5.977-6.523,6.018C491.026,432.929,489.69,432.446,488.372,432.047z
			 M492.417,421.88c-2.506,0.029-4.338,1.829-4.408,4.329c-0.078,2.77,1.81,4.694,4.572,4.661c2.507-0.031,4.34-1.83,4.411-4.327
			C497.069,423.786,495.168,421.848,492.417,421.88z"/>
		<path fill-rule="evenodd" clip-rule="evenodd" fill="#696767" d="M500.028,419.032c3.055,2.366,5.173,0.735,7.37,0.832
			c1.502,0.067,1.504,0.037,2.617,2.353c-2.514,0.36-5.432-0.991-7.159,2.088c-1.525,2.72-0.643,5.335-0.288,8.1
			c-1.441,0.746-2.439,0.313-2.495-1.15C499.936,427.653,500.028,424.045,500.028,419.032z"/>
		<path fill-rule="evenodd" clip-rule="evenodd" fill="#696767" d="M552.028,419.032c3.055,2.366,5.173,0.756,7.369,0.825
			c1.515,0.048,1.517-0.015,2.611,2.36c-2.509,0.359-5.427-0.992-7.153,2.087c-1.525,2.72-0.643,5.335-0.288,8.101
			c-1.44,0.745-2.438,0.312-2.495-1.151C551.937,427.653,552.028,424.044,552.028,419.032z"/>
		<path fill-rule="evenodd" clip-rule="evenodd" fill="#7A7979" d="M525.99,424.836c0.003-0.265,0.021-0.528,0.055-0.791
			c-0.277-1.649,0.189-2.8,1.857-3.535c2.092-0.923,4.088-1.01,6.127-0.005c1.187,0.586,2.386,1.185,1.717,3.295
			c-2.463-0.183-5.072-3.652-7.623-0.217c1.186,1.926,3.855,1.099,5.016,2.857c-0.043,0.448-0.086,0.896-0.129,1.345
			C530.277,427.738,527.983,426.645,525.99,424.836z"/>
		<path fill-rule="evenodd" clip-rule="evenodd" fill="#777575" d="M476.476,426.481c0.909,0.473,1.439,1.306,1.875,2.241
			c2.494-2.625,1.712-7.289,6.604-9.262c-1.695,5.312-4.095,9.267-5.985,13.669c-2.922-1.294-2.774-3.794-3.327-5.909
			C475.92,426.975,476.198,426.728,476.476,426.481z"/>
		<path fill-rule="evenodd" clip-rule="evenodd" fill="#777575" d="M567.477,426.485c0.741,0.628,1.482,1.256,2.233,1.891
			c1.918-2.38,1.632-6.348,4.653-8.431c0.163-0.112,0.592,0.161,1.297,0.379c-1.127,4.569-4.188,8.232-5.407,12.932
			c-3.206-1.419-3.05-3.924-3.614-6.033C566.918,426.978,567.197,426.731,567.477,426.485z"/>
		<path fill-rule="evenodd" clip-rule="evenodd" fill="#706E6E" d="M533.01,427.785c0.043-0.448,0.086-0.896,0.129-1.345
			c1.567,0.323,2.57,1.327,3.265,2.675c-0.108,2.192-1.727,3.215-3.405,3.571c-1.99,0.423-4.277,0.805-5.877-1.494
			c1.999-0.887,4.323,0.204,6.127-1.213C534.391,429.081,534.079,428.409,533.01,427.785z"/>
		<path fill-rule="evenodd" clip-rule="evenodd" fill="#777575" d="M564.502,422.28c-0.104-0.123-0.252-0.229-0.303-0.371
			c-0.22-0.61-1.451-1.314-0.246-1.83c1.063-0.455,1.09,0.8,1.375,1.48C565.053,421.8,564.777,422.04,564.502,422.28z"/>
		<path fill-rule="evenodd" clip-rule="evenodd" fill="#777575" d="M474.382,421.556c0.983,0.756,0.696,1.954,1.025,2.937
			c-0.263,0.232-0.526,0.465-0.789,0.697c-0.984-0.756-0.704-1.95-1.019-2.938C473.86,422.02,474.121,421.788,474.382,421.556z"/>
		<path fill-rule="evenodd" clip-rule="evenodd" fill="#777575" d="M565.328,421.56c1.092,0.709,0.727,1.953,1.076,2.935
			c-0.263,0.232-0.524,0.466-0.786,0.698c-0.954-0.747-0.718-1.951-1.116-2.912C564.777,422.04,565.053,421.8,565.328,421.56z"/>
		<path fill-rule="evenodd" clip-rule="evenodd" fill="#777575" d="M473.6,422.251c-0.584-1.111-0.584-1.111-0.145-2.197
			c0.682,0.271,0.696,0.953,0.927,1.502C474.121,421.788,473.86,422.02,473.6,422.251z"/>
		<path fill-rule="evenodd" clip-rule="evenodd" fill="#777575" d="M475.643,427.221c-0.735-0.479-0.77-1.311-1.024-2.031
			c0.263-0.232,0.525-0.465,0.789-0.697c0.743,0.455,0.775,1.293,1.069,1.989C476.198,426.728,475.92,426.975,475.643,427.221z"/>
		<path fill-rule="evenodd" clip-rule="evenodd" fill="#777575" d="M566.404,424.494c0.747,0.453,0.779,1.293,1.072,1.991
			c-0.279,0.246-0.559,0.492-0.838,0.737c-0.729-0.48-0.766-1.311-1.021-2.03C565.88,424.96,566.142,424.727,566.404,424.494z"/>
		<path fill-rule="evenodd" clip-rule="evenodd" fill="#FAFAFA" d="M446.903,426.29c0.028-2.256,1.793-4.187,3.934-4.303
			c2.277-0.124,4.292,1.992,4.261,4.475c-0.028,2.26-1.789,4.187-3.934,4.304C448.884,430.89,446.872,428.775,446.903,426.29z"/>
		<path fill-rule="evenodd" clip-rule="evenodd" fill="#F4F4F4" d="M461.105,424.754c3.854-3.637,4.082-3.652,8.225-0.426
			C466.468,425.472,463.924,424.98,461.105,424.754z"/>
		<path fill-rule="evenodd" clip-rule="evenodd" fill="#F4F4F4" d="M548.616,424.769c-3.268,0-5.667,0-8.118,0
			C543.313,421.16,544.406,421.072,548.616,424.769z"/>
		<path fill-rule="evenodd" clip-rule="evenodd" fill="#FAFAFA" d="M513.887,426.548c-0.065-2.525,1.866-4.634,4.189-4.573
			c2.117,0.055,3.979,2.006,4.037,4.229c0.066,2.525-1.865,4.633-4.19,4.572C515.803,430.721,513.943,428.773,513.887,426.548z"/>
		<path fill-rule="evenodd" clip-rule="evenodd" fill="#F1F1F1" d="M492.417,421.88c2.75-0.032,4.651,1.906,4.574,4.663
			c-0.07,2.497-1.904,4.296-4.411,4.327c-2.762,0.033-4.65-1.892-4.572-4.661C488.08,423.709,489.912,421.909,492.417,421.88z"/>
	</g>
</g>
<path fill="#35C28B" d="M283.353,16.813c-77.537,0-140.395,62.857-140.395,140.395c0,38.154,15.234,72.742,39.938,98.047v-94.973
	c-0.031-1.027-0.105-2.041-0.105-3.074c0-55.541,45.027-100.563,100.563-100.563c24.008,0,46.031,8.424,63.313,22.463V31.984
	C327.63,22.332,306.154,16.813,283.353,16.813z"/>
<path fill="#35C28B" d="M283.353,297.602c77.539,0,140.395-62.859,140.395-140.395c0-38.154-15.234-72.742-39.938-98.047v94.973
	c0.031,1.027,0.105,2.041,0.105,3.074c0,55.541-45.027,100.563-100.563,100.563c-24.008,0-46.031-8.426-63.313-22.465v47.125
	C239.076,292.082,260.552,297.602,283.353,297.602z"/>
<g>
	<path fill="#B0B0B0" d="M66.052,343.855c0-0.988,0.352-1.834,1.056-2.538c0.703-0.703,1.55-1.056,2.538-1.056
		s1.834,0.353,2.538,1.056c0.703,0.704,1.056,1.55,1.056,2.538v43.215c0,6.948-2.456,12.878-7.367,17.789
		c-4.912,4.912-10.842,7.367-17.789,7.367c-6.948,0-12.878-2.455-17.789-7.367c-4.912-4.911-7.367-10.841-7.367-17.789
		c0-6.947,2.455-12.877,7.367-17.789c4.911-4.911,10.841-7.367,17.789-7.367c6.947,0,12.877,2.456,17.789,7.367
		c0.06,0.061,0.119,0.12,0.18,0.18V343.855z M66.052,387.07c0-4.971-1.752-9.209-5.256-12.713s-7.742-5.256-12.713-5.256
		c-4.972,0-9.209,1.752-12.713,5.256s-5.256,7.742-5.256,12.713c0,4.972,1.752,9.209,5.256,12.713s7.741,5.256,12.713,5.256
		c4.971,0,9.209-1.752,12.713-5.256S66.052,392.042,66.052,387.07z"/>
	<path fill="#B0B0B0" d="M119.419,400.008c0.988,0,1.834,0.353,2.538,1.056c0.703,0.704,1.056,1.55,1.056,2.538
		s-0.345,1.842-1.033,2.561c-4.643,4.043-10.107,6.064-16.396,6.064c-6.948,0-12.878-2.455-17.789-7.367
		c-4.912-4.911-7.367-10.841-7.367-17.789c0-6.947,2.455-12.877,7.367-17.789c4.911-4.911,10.841-7.367,17.789-7.367
		c6.947,0,12.877,2.456,17.789,7.367c4.911,4.912,7.367,10.842,7.367,17.789c0,0.988-0.353,1.835-1.056,2.538
		c-0.704,0.704-1.55,1.056-2.538,1.056H87.929c0.658,3.444,2.306,6.484,4.941,9.119c3.504,3.504,7.741,5.256,12.713,5.256
		c4.492,0,8.355-1.422,11.59-4.268C117.832,400.263,118.581,400.008,119.419,400.008z M123.238,383.477
		c-0.659-3.443-2.307-6.483-4.941-9.119c-3.504-3.504-7.742-5.256-12.713-5.256c-4.972,0-9.209,1.752-12.713,5.256
		c-2.636,2.636-4.283,5.676-4.941,9.119H123.238z"/>
	<path fill="#B0B0B0" d="M163.847,411.238c-0.659,0.659-1.513,0.988-2.561,0.988c-1.049,0-1.902-0.344-2.561-1.033
		c-0.21-0.18-0.404-0.464-0.584-0.854L138.197,366.9c-0.18-0.419-0.27-0.883-0.27-1.393c0-0.988,0.352-1.834,1.056-2.538
		c0.703-0.703,1.55-1.056,2.538-1.056s1.842,0.345,2.561,1.033c0.239,0.24,0.464,0.555,0.674,0.943l16.531,36.117l16.531-36.117
		c0.209-0.389,0.449-0.703,0.719-0.943c0.688-0.688,1.527-1.033,2.516-1.033s1.834,0.353,2.538,1.056
		c0.703,0.704,1.056,1.55,1.056,2.538c0,0.51-0.09,0.974-0.27,1.393l-19.945,43.439
		C164.251,410.729,164.056,411.029,163.847,411.238z"/>
	<path fill="#B0B0B0" d="M199.021,430.195c0,0.988-0.353,1.834-1.056,2.538c-0.704,0.703-1.55,1.056-2.538,1.056
		s-1.835-0.353-2.538-1.056c-0.704-0.704-1.056-1.55-1.056-2.538V387.07c0-6.947,2.455-12.877,7.367-17.789
		c4.911-4.911,10.841-7.367,17.789-7.367c6.947,0,12.877,2.456,17.789,7.367c4.911,4.912,7.367,10.842,7.367,17.789
		c0,6.948-2.456,12.878-7.367,17.789c-4.912,4.912-10.842,7.367-17.789,7.367c-6.948,0-12.878-2.455-17.789-7.367
		c-0.061-0.06-0.12-0.119-0.18-0.18V430.195z M199.021,387.07c0,4.972,1.752,9.209,5.256,12.713s7.741,5.256,12.713,5.256
		c4.971,0,9.209-1.752,12.713-5.256s5.256-7.741,5.256-12.713c0-4.971-1.752-9.209-5.256-12.713s-7.742-5.256-12.713-5.256
		c-4.972,0-9.209,1.752-12.713,5.256S199.021,382.1,199.021,387.07z"/>
	<path fill="#B0B0B0" d="M249.333,365.508c0-0.988,0.352-1.834,1.056-2.538c0.703-0.703,1.55-1.056,2.538-1.056
		s1.834,0.353,2.538,1.056c0.703,0.704,1.056,1.55,1.056,2.538v3.953c5.031-5.031,11.021-7.547,17.969-7.547
		c3.504,0,6.723,0.6,9.658,1.797c0.539,0.21,1.033,0.524,1.482,0.943c0.688,0.719,1.033,1.572,1.033,2.561s-0.353,1.835-1.056,2.538
		c-0.704,0.704-1.55,1.056-2.538,1.056c-0.569,0-1.094-0.119-1.572-0.359c-2.127-0.898-4.463-1.348-7.008-1.348
		c-4.972,0-9.209,1.752-12.713,5.256s-5.256,7.742-5.256,12.713v21.563c0,0.988-0.353,1.835-1.056,2.538
		c-0.704,0.704-1.55,1.056-2.538,1.056s-1.835-0.352-2.538-1.056c-0.704-0.703-1.056-1.55-1.056-2.538V365.508z"/>
	<path fill="#B0B0B0" d="M342.771,387.07c0,6.948-2.456,12.878-7.367,17.789c-4.912,4.912-10.842,7.367-17.789,7.367
		c-6.948,0-12.878-2.455-17.789-7.367c-4.912-4.911-7.367-10.841-7.367-17.789c0-6.947,2.455-12.877,7.367-17.789
		c4.911-4.911,10.841-7.367,17.789-7.367c6.947,0,12.877,2.456,17.789,7.367C340.315,374.193,342.771,380.123,342.771,387.07z
		 M317.615,369.102c-4.972,0-9.209,1.752-12.713,5.256s-5.256,7.742-5.256,12.713c0,4.972,1.752,9.209,5.256,12.713
		s7.741,5.256,12.713,5.256c4.971,0,9.209-1.752,12.713-5.256s5.256-7.741,5.256-12.713c0-4.971-1.752-9.209-5.256-12.713
		S322.585,369.102,317.615,369.102z"/>
	<path fill="#B0B0B0" d="M358.853,387.07c-2.726-1.018-4.627-2.081-5.705-3.189c-2.127-2.096-3.189-4.627-3.189-7.592
		s1.107-5.555,3.324-7.771c4.313-4.402,9.942-6.604,16.891-6.604c7.517,0,13.955,3.01,19.316,9.029
		c0.479,0.569,0.703,1.273,0.674,2.111c0,0.988-0.353,1.835-1.056,2.538c-0.704,0.704-1.55,1.056-2.538,1.056
		s-1.782-0.314-2.381-0.943c-0.6-0.629-1.033-1.078-1.303-1.348c-3.504-3.504-7.742-5.256-12.713-5.256
		c-4.972,0-8.939,1.558-11.904,4.672c-0.719,0.869-1.078,1.902-1.078,3.1c0.09,1.408,0.823,2.366,2.201,2.875l22.102,7.322
		c2.725,1.019,4.627,2.082,5.705,3.189c2.126,2.097,3.189,4.627,3.189,7.592s-1.108,5.556-3.324,7.771
		c-4.313,4.402-9.943,6.604-16.891,6.604c-7.547,0-13.986-3.01-19.316-9.029c-0.449-0.629-0.674-1.332-0.674-2.111
		c0-0.988,0.352-1.834,1.056-2.538c0.703-0.703,1.55-1.056,2.538-1.056s1.781,0.314,2.381,0.943
		c0.599,0.629,1.033,1.078,1.303,1.348c3.504,3.504,7.741,5.256,12.713,5.256c4.971,0,8.939-1.557,11.904-4.672
		c0.719-0.868,1.078-1.901,1.078-3.1c-0.09-1.407-0.824-2.365-2.201-2.875L358.853,387.07z"/>
	<path fill="#B0B0B0" d="M436.568,400.008c0.988,0,1.834,0.353,2.538,1.056c0.703,0.704,1.056,1.55,1.056,2.538
		s-0.345,1.842-1.033,2.561c-4.643,4.043-10.107,6.064-16.396,6.064c-6.948,0-12.878-2.455-17.789-7.367
		c-4.912-4.911-7.367-10.841-7.367-17.789c0-6.947,2.455-12.877,7.367-17.789c4.911-4.911,10.841-7.367,17.789-7.367
		c6.947,0,12.877,2.456,17.789,7.367c4.911,4.912,7.367,10.842,7.367,17.789c0,0.988-0.353,1.835-1.056,2.538
		c-0.704,0.704-1.55,1.056-2.538,1.056h-39.217c0.658,3.444,2.306,6.484,4.941,9.119c3.504,3.504,7.741,5.256,12.713,5.256
		c4.492,0,8.355-1.422,11.59-4.268C434.98,400.263,435.729,400.008,436.568,400.008z M440.386,383.477
		c-0.659-3.443-2.307-6.483-4.941-9.119c-3.504-3.504-7.742-5.256-12.713-5.256c-4.972,0-9.209,1.752-12.713,5.256
		c-2.636,2.636-4.283,5.676-4.941,9.119H440.386z"/>
	<path fill="#B0B0B0" d="M455.076,365.508c0-0.988,0.352-1.834,1.056-2.538c0.703-0.703,1.55-1.056,2.538-1.056
		s1.834,0.353,2.538,1.056c0.703,0.704,1.056,1.55,1.056,2.538v3.953c5.031-5.031,11.021-7.547,17.969-7.547
		c3.504,0,6.723,0.6,9.658,1.797c0.539,0.21,1.033,0.524,1.482,0.943c0.688,0.719,1.033,1.572,1.033,2.561s-0.353,1.835-1.056,2.538
		c-0.704,0.704-1.55,1.056-2.538,1.056c-0.569,0-1.094-0.119-1.572-0.359c-2.127-0.898-4.463-1.348-7.008-1.348
		c-4.972,0-9.209,1.752-12.713,5.256s-5.256,7.742-5.256,12.713v21.563c0,0.988-0.353,1.835-1.056,2.538
		c-0.704,0.704-1.55,1.056-2.538,1.056s-1.835-0.352-2.538-1.056c-0.704-0.703-1.056-1.55-1.056-2.538V365.508z"/>
	<path fill="#B0B0B0" d="M524.121,411.238c-0.66,0.659-1.514,0.988-2.561,0.988c-1.049,0-1.902-0.344-2.561-1.033
		c-0.211-0.18-0.404-0.464-0.584-0.854L498.47,366.9c-0.18-0.419-0.27-0.883-0.27-1.393c0-0.988,0.352-1.834,1.056-2.538
		c0.703-0.703,1.55-1.056,2.538-1.056s1.842,0.345,2.561,1.033c0.239,0.24,0.464,0.555,0.674,0.943l16.532,36.117l16.531-36.117
		c0.209-0.389,0.449-0.703,0.719-0.943c0.688-0.688,1.527-1.033,2.516-1.033s1.834,0.353,2.537,1.056
		c0.703,0.704,1.057,1.55,1.057,2.538c0,0.51-0.09,0.974-0.27,1.393l-19.945,43.439C524.525,410.729,524.33,411.029,524.121,411.238
		z"/>
</g>
</svg>